<?xml version="1.0" standalone="no"?>
<!DOCTYPE svg PUBLIC "-//W3C//DTD SVG 20010904//EN"
 "http://www.w3.org/TR/2001/REC-SVG-20010904/DTD/svg10.dtd">
<svg version="1.0" xmlns="http://www.w3.org/2000/svg"
 width="191.000000pt" height="170.000000pt" viewBox="0 0 191.000000 170.000000"
 preserveAspectRatio="xMidYMid meet">

<g transform="translate(0.000000,170.000000) scale(0.100000,-0.100000)"
fill="#000000" stroke="none">
<path d="M640 1687 c-122 -35 -228 -122 -277 -227 -16 -34 -34 -60 -43 -60 -8
0 -42 -13 -75 -29 -244 -116 -320 -422 -159 -638 23 -30 24 -36 13 -78 -7 -27
-9 -78 -6 -121 17 -228 234 -414 456 -391 50 5 57 3 87 -23 174 -152 432 -143
588 20 30 32 67 82 82 113 25 50 32 57 72 68 107 30 217 137 261 253 47 126
33 264 -39 374 l-38 60 11 66 c38 222 -121 445 -348 487 -33 6 -82 9 -108 5
-45 -5 -51 -3 -105 39 -31 24 -82 54 -112 65 -68 27 -196 35 -260 17z m248
-133 c29 -14 51 -31 50 -36 -2 -6 -80 -54 -173 -108 -93 -54 -175 -106 -182
-116 -10 -14 -13 -74 -13 -257 0 -131 -3 -237 -8 -235 -4 2 -36 19 -70 38
l-63 35 3 240 3 240 28 57 c40 81 120 145 212 169 53 14 155 1 213 -27z m391
-125 c62 -27 135 -101 162 -163 22 -52 39 -176 24 -176 -5 0 -86 45 -180 100
-95 55 -183 100 -195 100 -19 0 -228 -114 -407 -222 l-33 -20 0 85 0 84 185
107 c103 59 209 113 238 121 64 18 144 12 206 -16z m-959 -358 l0 -210 33 -24
c17 -14 113 -71 212 -127 99 -57 182 -105 184 -107 6 -5 -21 -23 -84 -57 l-54
-30 -181 104 c-99 58 -196 117 -215 133 -45 36 -95 139 -102 209 -11 109 43
220 141 286 27 17 52 32 57 32 5 0 9 -94 9 -209z m925 14 c99 -57 198 -121
219 -142 115 -113 121 -306 14 -428 -34 -38 -101 -85 -123 -85 -3 0 -5 94 -5
208 0 153 -3 211 -12 221 -7 6 -104 65 -215 129 -112 64 -203 119 -203 122 0
7 122 79 134 80 5 0 91 -47 191 -105z m-315 -74 l85 -48 0 -108 0 -108 -88
-50 c-100 -56 -87 -57 -209 14 l-68 40 0 104 0 104 83 50 c45 27 89 50 97 50
8 1 53 -21 100 -48z m240 -139 l65 -38 0 -240 c0 -234 -1 -240 -25 -289 -31
-64 -91 -124 -155 -155 -70 -34 -187 -35 -262 -1 -29 13 -57 28 -62 35 -7 8
34 36 142 98 84 48 167 96 185 108 l32 20 0 250 c0 137 3 250 8 250 4 0 36
-17 72 -38z m-150 -295 l0 -83 -184 -107 c-101 -58 -210 -113 -241 -123 -154
-44 -328 52 -379 208 -15 46 -22 148 -11 148 2 0 83 -45 178 -100 95 -55 184
-100 198 -100 13 0 116 54 229 120 113 66 206 120 208 120 1 0 2 -37 2 -83z"/>
</g>
</svg>
